PathFileType	4	(X/Y/Z)	/Users/itak/Documents/Research/Walk-IL/dataset/trc/00464_00167.trc
DataRate	CameraRate	NumFrames	NumMarkers	Units	OrigDataRate	OrigDataStartFrame	OrigNumFrames
100.000000	100.000000	4	53	mm	100.000000	139	556
Frame#	Time	RPSI			LPSI			L3			STRN			T10			C7			CLAV			RBAK			LBAK			LSHO			LUPA			LAEL			LAOL			LWTS			LWPS			LFRA			LIFD			LHPS			LHTS			RSHO			RUPA			RAEL			RAOL			RWTS			RWPS			RFRA			RIFD			RHTS			RHPS			RBHD			LFHD			RFHD			LBHD			LHIP			RHIP			RASI			LASI			LKNE			LTHI			LANK			LTIP			LTOE			LMT1			LMT5			LHEE			RKNE			RTHI			RANK			RTIP			RTOE			RMT1			RMT5			RHEE			
		X1	Y1	Z1	X2	Y2	Z2	X3	Y3	Z3	X4	Y4	Z4	X5	Y5	Z5	X6	Y6	Z6	X7	Y7	Z7	X8	Y8	Z8	X9	Y9	Z9	X10	Y10	Z10	X11	Y11	Z11	X12	Y12	Z12	X13	Y13	Z13	X14	Y14	Z14	X15	Y15	Z15	X16	Y16	Z16	X17	Y17	Z17	X18	Y18	Z18	X19	Y19	Z19	X20	Y20	Z20	X21	Y21	Z21	X22	Y22	Z22	X23	Y23	Z23	X24	Y24	Z24	X25	Y25	Z25	X26	Y26	Z26	X27	Y27	Z27	X28	Y28	Z28	X29	Y29	Z29	X30	Y30	Z30	X31	Y31	Z31	X32	Y32	Z32	X33	Y33	Z33	X34	Y34	Z34	X35	Y35	Z35	X36	Y36	Z36	X37	Y37	Z37	X38	Y38	Z38	X39	Y39	Z39	X40	Y40	Z40	X41	Y41	Z41	X42	Y42	Z42	X43	Y43	Z43	X44	Y44	Z44	X45	Y45	Z45	X46	Y46	Z46	X47	Y47	Z47	X48	Y48	Z48	X49	Y49	Z49	X50	Y50	Z50	X51	Y51	Z51	X52	Y52	Z52	X53	Y53	Z53	

140	1.39	-1205.858154296875	968.7985229492188	-461.3801879882812	-1224.26220703125	966.418212890625	-601.5904541015625	-1198.87744140625	1050.631958007812	-519.2962036132812	-942.1246337890625	1257.458984375	-583.271240234375	-1221.100830078125	1175.000244140625	-522.7957763671875	-1164.234252929688	1445.692016601562	-528.3563842773438	-983.4231567382812	1369.162109375	-582.4449462890625	-1201.369384765625	1327.62890625	-421.8652954101562	-1217.028564453125	1394.595458984375	-616.0783081054688	-1137.711791992188	1419.449829101562	-718.765869140625	-1167.990600585938	1298.979614257812	-808.4136352539062	-1152.534423828125	1084.108764648438	-845.2450561523438	-1212.579833984375	1071.06640625	-762.4749755859375	-1060.846557617188	883.5980224609375	-821.5874633789062	-1120.347045898438	868.824951171875	-864.6845092773438	-1133.337036132812	996.806640625	-858.8563232421875	-1058.034057617188	714.752685546875	-833.8468627929688	-1110.873413085938	792.216796875	-871.1680908203125	-1046.396118164062	797.6336059570312	-839.6201171875	-1062.799926757812	1422.689331054688	-385.1719360351562	-1063.827514648438	1361.488525390625	-307.1578063964844	-1028.546142578125	1074.7099609375	-255.2890930175781	-1089.72998046875	1057.65966796875	-278.9728698730469	-941.5659790039062	872.4541625976562	-328.1727600097656	-988.9571533203125	855.802734375	-255.2921447753906	-1020.993103027344	1016.042602539062	-247.3758392333984	-933.1238403320312	715.5244750976562	-320.7725524902344	-918.9680786132812	775.0188598632812	-319.7458801269531	-970.91748046875	769.2401123046875	-262.7369384765625	-1064.300170898438	1644.852294921875	-457.0733337402344	-986.9863891601562	1673.160522460938	-647.0457763671875	-946.010986328125	1671.786254882812	-522.6219482421875	-1135.63671875	1649.698608398438	-620.5686645507812	-1110.177612304688	860.1404418945312	-737.4891357421875	-1078.877319335938	862.1737670898438	-336.6189575195312	-980.0914306640625	898.2488403320312	-412.9704284667969	-1000.825927734375	894.51416015625	-670.896484375	-1129.963500976562	441.8795166015625	-690.306640625	-1097.411376953125	591.1412963867188	-720.4043579101562	-1224.742919921875	39.26640319824219	-659.1866455078125	-1149.740112304688	295.6961364746094	-697.6593017578125	-981.3818969726562	44.17645263671875	-639.8369750976562	-1048.765502929688	51.52115249633789	-596.3323364257812	-1077.357788085938	44.50225448608398	-706.9172973632812	-1253.454833984375	47.00850296020508	-585.6824951171875	-1083.886352539062	469.4601440429688	-355.6678771972656	-1042.917114257812	727.2254638671875	-326.212158203125	-1152.473754882812	42.83372497558594	-335.0492858886719	-1088.960327148438	327.8911743164062	-341.5674743652344	-948.1004028320312	48.07119369506836	-419.4891662597656	-1015.412658691406	54.64305114746094	-443.9823913574219	-1016.359008789062	47.20308303833008	-335.5770263671875	-1223.965087890625	34.60234832763672	-370.8896789550781	
141	1.4	-1205.385620117188	968.94287109375	-461.8572387695312	-1223.869506835938	966.6256103515625	-602.10546875	-1198.2578125	1050.677490234375	-519.7869873046875	-941.552490234375	1257.47607421875	-584.2788696289062	-1220.431640625	1175.000610351562	-523.3170166015625	-1163.679565429688	1445.738525390625	-529.1443481445312	-982.9942016601562	1369.143310546875	-583.5042724609375	-1200.62744140625	1327.705322265625	-422.5425109863281	-1216.651489257812	1394.515502929688	-616.7015991210938	-1137.572143554688	1419.33544921875	-719.567626953125	-1168.039794921875	1298.737548828125	-809.043701171875	-1152.64892578125	1083.90234375	-845.78173828125	-1212.454223632812	1070.899169921875	-762.8585815429688	-1061.056640625	883.2800903320312	-822.3507080078125	-1120.711669921875	868.5839233398438	-865.27392578125	-1133.512939453125	996.5491943359375	-859.3983154296875	-1058.618041992188	714.4578247070312	-834.5681762695312	-1111.2587890625	791.8989868164062	-871.7467651367188	-1046.818115234375	797.2630615234375	-840.3485717773438	-1062.002197265625	1422.824462890625	-386.1389465332031	-1062.916625976562	1361.7080078125	-308.0426940917969	-1027.566772460938	1074.904907226562	-256.3075866699219	-1088.753295898438	1057.920043945312	-279.965087890625	-940.8033447265625	872.5425415039062	-329.3227844238281	-988.054931640625	855.9385986328125	-256.3500366210938	-1020.0224609375	1016.23046875	-248.3917846679688	-932.4088745117188	715.6294555664062	-322.0031127929688	-918.2418212890625	775.1089477539062	-320.956787109375	-970.1094360351562	769.37255859375	-263.8716430664062	-1063.282836914062	1645.165771484375	-458.4446411132812	-985.7642822265625	1672.615234375	-648.4430541992188	-944.8382568359375	1671.335693359375	-523.9979858398438	-1134.537231445312	1649.955444335938	-621.93701171875	-1109.88525390625	860.176025390625	-738.1546630859375	-1078.407592773438	862.039794921875	-337.3176574707031	-979.58056640625	898.143798828125	-413.691650390625	-1000.509399414062	894.5775756835938	-671.585693359375	-1129.45068359375	441.7857971191406	-690.7546997070312	-1096.934326171875	591.10546875	-720.9208374023438	-1224.721435546875	39.29000091552734	-659.27294921875	-1149.3388671875	295.541015625	-697.9281616210938	-981.3934936523438	44.18902969360352	-639.7715454101562	-1048.774291992188	51.51791763305664	-596.2765502929688	-1077.348999023438	44.50667190551758	-706.8883666992188	-1253.489990234375	47.05996704101562	-585.7200927734375	-1083.295654296875	469.2782897949219	-356.0219421386719	-1042.384765625	727.1276245117188	-327.0549926757812	-1152.52685546875	42.75242614746094	-334.9168090820312	-1088.598876953125	327.7406921386719	-341.7496643066406	-948.1617431640625	48.11520004272461	-419.2719116210938	-1015.518432617188	54.69287109375	-443.9211730957031	-1016.414794921875	47.19804000854492	-335.5201416015625	-1224.000732421875	34.45613098144531	-370.7872619628906	
142	1.41	-1204.908203125	969.04443359375	-462.3834838867188	-1223.473022460938	966.7897338867188	-602.6709594726562	-1197.642211914062	1050.716186523438	-520.3197021484375	-940.9619750976562	1257.471557617188	-585.3560180664062	-1219.7626953125	1175.017578125	-523.8439331054688	-1163.079345703125	1445.775024414062	-529.9549560546875	-982.5409545898438	1369.111328125	-584.6205444335938	-1199.834106445312	1327.788330078125	-423.2375793457031	-1216.24755859375	1394.439819335938	-617.3435668945312	-1137.422607421875	1419.214111328125	-720.4014282226562	-1168.078857421875	1298.4833984375	-809.702392578125	-1152.745361328125	1083.693481445312	-846.352294921875	-1212.312255859375	1070.7216796875	-763.2572631835938	-1061.252685546875	882.9821166992188	-823.1286010742188	-1121.063720703125	868.327392578125	-865.8855590820312	-1133.651245117188	996.2951049804688	-859.9841918945312	-1059.165283203125	714.1917724609375	-835.3399047851562	-1111.605590820312	791.5744018554688	-872.3860473632812	-1047.146484375	796.8946533203125	-841.1318359375	-1061.12890625	1422.949462890625	-387.1539001464844	-1061.912353515625	1361.937133789062	-308.9675903320312	-1026.53466796875	1075.10888671875	-257.3318481445312	-1087.731689453125	1058.186279296875	-280.9469299316406	-939.9938354492188	872.6417236328125	-330.456787109375	-987.1226196289062	856.0812377929688	-257.3953552246094	-1019.007507324219	1016.441650390625	-249.4033966064453	-931.6803588867188	715.7355346679688	-323.2314758300781	-917.5121459960938	775.2086181640625	-322.1693420410156	-969.2647094726562	769.505126953125	-264.9996948242188	-1062.244506835938	1645.450317382812	-459.8747253417969	-984.49462890625	1672.05908203125	-649.87646484375	-943.6484375	1670.87841796875	-525.4063720703125	-1133.3798828125	1650.164794921875	-623.365234375	-1109.601928710938	860.2012329101562	-738.8634033203125	-1077.893188476562	861.8858032226562	-338.0786437988281	-979.034912109375	898.020263671875	-414.5111694335938	-1000.200439453125	894.6157836914062	-672.3624877929688	-1128.999389648438	441.7106018066406	-691.251953125	-1096.47900390625	591.0650024414062	-721.4862670898438	-1224.716552734375	39.31547927856445	-659.3717041015625	-1148.933837890625	295.3793029785156	-698.23291015625	-981.4129638671875	44.20526123046875	-639.6972045898438	-1048.797485351562	51.51039505004883	-596.2237548828125	-1077.346557617188	44.51223754882812	-706.8595581054688	-1253.53125	47.11238098144531	-585.7637329101562	-1082.497436523438	469.0588684082031	-356.4605102539062	-1041.73388671875	727.0114135742188	-328.0097961425781	-1152.568969726562	42.66844940185547	-334.8015441894531	-1088.09765625	327.5538330078125	-342.0025329589844	-948.2215576171875	48.1592903137207	-419.0727233886719	-1015.631713867188	54.74140548706055	-443.8662414550781	-1016.473449707031	47.19240951538086	-335.473388671875	-1224.039916992188	34.31075286865234	-370.681396484375	
143	1.42	-1204.424438476562	969.0953979492188	-462.9635009765625	-1223.0712890625	966.9049682617188	-603.291748046875	-1197.0322265625	1050.739624023438	-520.8995971679688	-940.3616943359375	1257.4384765625	-586.5068969726562	-1219.09423828125	1175.0517578125	-524.3787841796875	-1162.430786132812	1445.800537109375	-530.7904052734375	-982.0551147460938	1369.061279296875	-585.7963256835938	-1198.990966796875	1327.87744140625	-423.9496459960938	-1215.813232421875	1394.370849609375	-618.0061645507812	-1137.255493164062	1419.080932617188	-721.26708984375	-1168.098876953125	1298.22216796875	-810.3875122070312	-1152.817016601562	1083.476196289062	-846.9573364257812	-1212.154418945312	1070.53662109375	-763.6767578125	-1061.438720703125	882.6980590820312	-823.9218139648438	-1121.401245117188	868.0601806640625	-866.51953125	-1133.760986328125	996.0418701171875	-860.6149291992188	-1059.655517578125	713.9310302734375	-836.1517333984375	-1111.90478515625	791.2469482421875	-873.080078125	-1047.382568359375	796.5333251953125	-841.962158203125	-1060.180053710938	1423.0615234375	-388.2178039550781	-1060.8125	1362.169189453125	-309.9360656738281	-1025.452758789062	1075.322998046875	-258.3587646484375	-1086.674194335938	1058.44873046875	-281.8992004394531	-939.1412353515625	872.755615234375	-331.5611877441406	-986.1647338867188	856.2282104492188	-258.4197692871094	-1017.950561523438	1016.671264648438	-250.4040985107422	-930.9491577148438	715.8434448242188	-324.4421081542969	-916.7750854492188	775.3200073242188	-323.3661499023438	-968.3849487304688	769.6336059570312	-266.10888671875	-1061.18505859375	1645.699096679688	-461.3634338378906	-983.1801147460938	1671.496704101562	-651.3456420898438	-942.4423217773438	1670.415283203125	-526.8472290039062	-1132.168701171875	1650.325927734375	-624.8551025390625	-1109.341674804688	860.213623046875	-739.6314697265625	-1077.329833984375	861.711181640625	-338.90185546875	-978.4550170898438	897.8779907226562	-415.4300231933594	-999.9158325195312	894.6218872070312	-673.2382202148438	-1128.612426757812	441.6481323242188	-691.7910766601562	-1096.057739257812	591.0147705078125	-722.1065063476562	-1224.732055664062	39.33784866333008	-659.4813842773438	-1148.531616210938	295.2096557617188	-698.5742797851562	-981.4401245117188	44.22568130493164	-639.6132202148438	-1048.842407226562	51.49237442016602	-596.1802368164062	-1077.353637695312	44.52312850952148	-706.8285522460938	-1253.57861328125	47.16227722167969	-585.81201171875	-1081.457641601562	468.800048828125	-356.9847106933594	-1040.970336914062	726.8798217773438	-329.0551147460938	-1152.601684570312	42.57914352416992	-334.6982727050781	-1087.4384765625	327.3341369628906	-342.3296813964844	-948.2794799804688	48.20370101928711	-418.8955383300781	-1015.748840332031	54.78311920166016	-443.8181762695312	-1016.5322265625	47.18521499633789	-335.4354553222656	-1224.082885742188	34.17008209228516	-370.5680847167969	
